Coordinates
version=1
nRows=21
nColumns=12
inDegrees=yes

Units are S.I. units (second, meters, Newtons, ...)
Angles are in degrees

endheader
time	SC_y	SC_z	SC_x	AC_y	AC_z	AC_x	GH_y	GH_z	GH_yy	EL_x	PS_y
       0.0              -54.32          36.08          77.87          54.65         -10.55          4.438          53.94          63.33          114.6          116.1           65.5
 0.0007695              -54.32          36.08          77.86          54.65         -10.55          4.435          53.94          63.32          114.6          116.0          65.49
  0.001539              -54.32          36.07          77.86          54.65         -10.55          4.432          53.93          63.31          114.6          116.0          65.49
  0.002308              -54.31          36.07          77.85          54.66         -10.55          4.429          53.92           63.3          114.6          116.0          65.48
  0.003078              -54.31          36.07          77.84          54.66         -10.56          4.425          53.92          63.28          114.5          116.0          65.47
  0.003847              -54.31          36.07          77.83          54.66         -10.56          4.422          53.91          63.27          114.5          116.0          65.46
  0.004617               -54.3          36.07          77.83          54.66         -10.56          4.418           53.9          63.25          114.5          115.9          65.45
  0.005386               -54.3          36.07          77.82          54.66         -10.56          4.413          53.89          63.24          114.5          115.9          65.43
  0.006156               -54.3          36.06          77.81          54.66         -10.56          4.409          53.88          63.22          114.5          115.9          65.42
  0.006925              -54.29          36.06           77.8          54.66         -10.56          4.404          53.87           63.2          114.5          115.9          65.41
  0.007695              -54.29          36.06          77.79          54.67         -10.57          4.399          53.86          63.18          114.5          115.9           65.4
  0.008464              -54.29          36.06          77.77          54.67         -10.57          4.393          53.85          63.16          114.4          115.8          65.38
  0.009234              -54.28          36.05          77.76          54.67         -10.57          4.387          53.84          63.14          114.4          115.8          65.36
      0.01              -54.28          36.05          77.75          54.67         -10.57          4.381          53.82          63.11          114.4          115.8          65.35
   0.01077              -54.27          36.05          77.73          54.68         -10.58          4.373          53.81          63.09          114.4          115.7          65.33
   0.01154              -54.27          36.04          77.71          54.68         -10.58          4.366          53.79          63.06          114.4          115.7          65.31
   0.01231              -54.26          36.04           77.7          54.68         -10.58          4.357          53.77          63.03          114.3          115.6          65.28
   0.01308              -54.25          36.04          77.68          54.68         -10.59          4.348          53.75          62.99          114.3          115.6          65.26
   0.01385              -54.25          36.03          77.66          54.69         -10.59          4.338          53.73          62.95          114.3          115.6          65.23
   0.01462              -54.24          36.03          77.63          54.69          -10.6          4.328          53.71          62.91          114.2          115.5           65.2
   0.01539              -54.23          36.02          77.61           54.7          -10.6          4.316          53.69          62.87          114.2          115.4          65.17
